<?xml version="1.0" standalone="no"?>
<svg xmlns:xlink="http://www.w3.org/1999/xlink" id="wave" style="transform:rotate(0deg); transition: 0.3s" viewBox="0 0 1440 310" version="1.1" xmlns="http://www.w3.org/2000/svg"><defs><linearGradient id="sw-gradient-0" x1="0" x2="0" y1="1" y2="0"><stop stop-color="rgba(255, 195, 0, 1)" offset="0%"/><stop stop-color="rgba(255, 87, 51, 1)" offset="100%"/></linearGradient></defs><path style="transform:translate(0, 0px); opacity:1" fill="url(#sw-gradient-0)" d="M0,62L26.7,87.8C53.3,114,107,165,160,186C213.3,207,267,196,320,186C373.3,176,427,165,480,155C533.3,145,587,134,640,124C693.3,114,747,103,800,103.3C853.3,103,907,114,960,144.7C1013.3,176,1067,227,1120,227.3C1173.3,227,1227,176,1280,144.7C1333.3,114,1387,103,1440,82.7C1493.3,62,1547,31,1600,46.5C1653.3,62,1707,124,1760,139.5C1813.3,155,1867,124,1920,129.2C1973.3,134,2027,176,2080,196.3C2133.3,217,2187,217,2240,222.2C2293.3,227,2347,238,2400,237.7C2453.3,238,2507,227,2560,206.7C2613.3,186,2667,155,2720,160.2C2773.3,165,2827,207,2880,196.3C2933.3,186,2987,124,3040,118.8C3093.3,114,3147,165,3200,175.7C3253.3,186,3307,155,3360,134.3C3413.3,114,3467,103,3520,93C3573.3,83,3627,72,3680,67.2C3733.3,62,3787,62,3813,62L3840,62L3840,310L3813.3,310C3786.7,310,3733,310,3680,310C3626.7,310,3573,310,3520,310C3466.7,310,3413,310,3360,310C3306.7,310,3253,310,3200,310C3146.7,310,3093,310,3040,310C2986.7,310,2933,310,2880,310C2826.7,310,2773,310,2720,310C2666.7,310,2613,310,2560,310C2506.7,310,2453,310,2400,310C2346.7,310,2293,310,2240,310C2186.7,310,2133,310,2080,310C2026.7,310,1973,310,1920,310C1866.7,310,1813,310,1760,310C1706.7,310,1653,310,1600,310C1546.7,310,1493,310,1440,310C1386.7,310,1333,310,1280,310C1226.7,310,1173,310,1120,310C1066.7,310,1013,310,960,310C906.7,310,853,310,800,310C746.7,310,693,310,640,310C586.7,310,533,310,480,310C426.7,310,373,310,320,310C266.7,310,213,310,160,310C106.7,310,53,310,27,310L0,310Z"/></svg>