<?xml version="1.0" encoding="UTF-8" standalone="no"?> <svg id="Flat" xmlns="http://www.w3.org/2000/svg" viewBox="0 0 340 340"><title>salad in bowl</title><path d="M194.9,177.539s-9.951-36.332,25.461-41.082a27.546,27.546,0,0,0,16.588-8.843c7.771-8.5,21.661-20.417,38.408-20.417a26.684,26.684,0,0,1,26.507,23.35,48.435,48.435,0,0,1-1.619,18.509,28.184,28.184,0,0,0,3.105,21.479c7.2,12.392,13.726,34.984-12,59.005H200.873Z" style="fill:#b5c979"/><path d="M269.272,136.476a135.578,135.578,0,0,0-11.267,12l-.812-8.31a4,4,0,1,0-7.962.777l1.009,10.326a17.434,17.434,0,0,1-2.114,10.142c-1.432,2.043-2.8,4.071-4.106,6.062l-.005.007,0,0c-2.67,4.078-5.058,8-7.131,11.56l-.022.037-.005.01c-1.907,3.281-3.551,6.267-4.893,8.793a75.609,75.609,0,0,0-6.441,16.556l-6.483,25.1H227.3l5.966-23.1a67.665,67.665,0,0,1,5.759-14.8c1.3-2.438,2.88-5.317,4.717-8.48l1.107-1.821a10.594,10.594,0,0,1,9-5.062h13.456a4,4,0,0,0,0-8H253.85c-.218,0-.434.014-.651.022l.551-.789q.656-.942,1.221-1.933a151.888,151.888,0,0,1,19.765-23.259,4,4,0,1,0-5.464-5.843Z" style="fill:#96aa4f"/><path d="M208.365,195.837a28.388,28.388,0,0,1,5.31,2.416l-7.533,2.321Z" style="fill:#d64747"/><path d="M239.455,209.892l20.17-14.666a8.145,8.145,0,0,1,10.563.842l11.863,11.917a8.147,8.147,0,0,1,1.021,10.239l-7.48,11.316H238.1Z" style="fill:#ffe5c2"/><path d="M279.834,205.758a12.712,12.712,0,0,1-3.366,11l-2.053,2.022a12.3,12.3,0,0,1-8.631,3.536H242.233l-3.7.914-.436,6.306h37.495l7.48-11.316a8.147,8.147,0,0,0-1.021-10.239Z" style="fill:#e8bb89"/><path d="M220.5,195.837a26.8,26.8,0,0,0-25.893,33.7h51.786a26.8,26.8,0,0,0-25.893-33.7Z" style="fill:#f97373"/><circle cx="189.315" cy="188.193" r="21.699" style="fill:#f97373"/><path d="M197.158,208.424A30.767,30.767,0,0,0,178.229,182.6a44.739,44.739,0,0,0-8.894-2.586c-.037-.007-.071-.021-.107-.029a21.7,21.7,0,0,0,27.93,28.441Z" style="fill:#d64747"/><path d="M228.5,223.947a29.729,29.729,0,0,0-16.654-26.673,26.806,26.806,0,0,0-17.239,32.266h33.358A29.822,29.822,0,0,0,228.5,223.947Z" style="fill:#d64747"/><path d="M198.8,194.248a29.65,29.65,0,0,0-22.99,10.923,21.691,21.691,0,0,0,33.657-8.934A29.533,29.533,0,0,0,198.8,194.248Z" style="fill:#d64747"/><path d="M198.8,202.248a21.706,21.706,0,0,0-20.967,27.292h41.935A21.706,21.706,0,0,0,198.8,202.248Z" style="fill:#f97373"/><path d="M197.149,214.71a32.083,32.083,0,0,0-1.116-12.28,21.7,21.7,0,0,0-18.2,27.11h14.453A35.253,35.253,0,0,0,197.149,214.71Z" style="fill:#d64747"/><path d="M90.06,159.1s2.746-10.527,11.9-16.615a18.737,18.737,0,0,1,27.867,9.284q.1.261.187.528a16.968,16.968,0,0,0,12.8,11c6.106,1.244,12.8,4.818,14.6,14.246a13.084,13.084,0,0,0,10.461,10.333,36.778,36.778,0,0,1,7.3,2.117A23.133,23.133,0,0,1,189.19,213.9a25.766,25.766,0,0,1-6.91,15.639H139.713Z" style="fill:#96aa4f"/><path d="M274.144,12.521C273,19.95,268.17,41.633,250.21,47.965a.333.333,0,0,0-.052.612c3.9,2.023,22.6,12.712,24.976,32.865a.337.337,0,0,0,.666.033c1.318-6.93,6.244-24.519,23.035-32.267a.332.332,0,0,0,.022-.6c-3.463-1.8-20.255-11.693-24.052-36.075A.334.334,0,0,0,274.144,12.521Z" style="fill:#ffcf64"/><path d="M78.78,45.017c-1.141,7.421-5.969,29.12-23.938,35.453a.332.332,0,0,0-.052.61c3.848,2,22.165,12.459,24.888,32.164a.331.331,0,0,0,.657.013c1.061-7.245,5.4-23.559,23.128-31.547a.332.332,0,0,0,.025-.6c-3.471-1.8-20.257-11.7-24.05-36.082A.333.333,0,0,0,78.78,45.017Z" style="fill:#ffcf64"/><path d="M49.578,229.54a54.122,54.122,0,0,1-1.145-13.873,16.628,16.628,0,0,0-4.923-12.625c-2.971-2.923-5.917-7.187-5.917-12.6a20,20,0,0,1,3.115-10.7,16.953,16.953,0,0,0,1.42-14.806,35.947,35.947,0,0,1-2.323-11.839,20.05,20.05,0,0,1,28.732-18.352c4.342,2.015,8.752,5.8,12.414,12.545a16.067,16.067,0,0,0,11.759,8.16c8.377,1.251,20.5,5.68,23.975,20.572a18.151,18.151,0,0,0,13.748,13.465c11.785,2.706,26.933,11.64,23.791,40.057Z" style="fill:#b5c979"/><path d="M125.579,227.656a49.561,49.561,0,0,1-15.527-7.866c-2.418-1.831-4.78-3.848-7.08-5.981a9.116,9.116,0,0,1-2.461-8.455l3.614-16.294a4,4,0,1,0-7.811-1.733L92.8,203.189q-1.638-1.9-3.2-3.814l-2.558-3.307c-.3-.392-.625-.766-.95-1.137A230.317,230.317,0,0,1,67.521,166.5a4,4,0,0,0-7.073,3.739c.331.628,3.846,7.211,9.649,16.038l-5.938-1.893a4,4,0,0,0-2.43,7.623l11.34,3.614a15.588,15.588,0,0,1,6.593,4.139A160.429,160.429,0,0,0,97.394,219.55l.018.019.017.014c2.52,2.338,5.119,4.559,7.793,6.584a55.919,55.919,0,0,0,5.017,3.373h21.512Z" style="fill:#96aa4f"/><path d="M32.536,229.54s4.737,65.72,70.806,86.257a13.949,13.949,0,0,1,9.341,9.812L113.828,330H226.172l1.145-4.391a13.949,13.949,0,0,1,9.341-9.812c66.069-20.537,70.806-86.257,70.806-86.257Z" style="fill:#4a5870"/></svg>